<svg width="273" height="316" viewBox="0 0 273 316" fill="none" xmlns="http://www.w3.org/2000/svg">
<path d="M248.143 194.954L223.404 194.915L223.454 264.992L136.606 315.153L111.554 300.757L198.407 250.596L198.335 222.253L86.9429 286.557L0.0279415 236.397L0 136.086L111.442 71.7148L86.9652 57.459L0.0838246 107.62L0.0447065 78.7896L86.9373 28.6233L198.318 92.9224L198.407 64.5952L111.543 14.429L136.545 0L223.421 50.1774V120.26L248.138 120.3L248.154 64.4779L272.994 78.7784V145.296L198.424 145.29L198.396 121.864L136.539 86.1214L74.6039 121.881L74.6151 193.3L136.534 229.059L198.402 193.311L198.424 169.89L273 169.879V236.397L248.149 250.719V194.954H248.143ZM111.464 243.483L49.5906 207.762V136.416L24.8903 150.555V221.895L86.9541 257.71L111.464 243.483Z" fill="black"/>
</svg>
