<svg width="1251" height="216" viewBox="0 0 1251 216" fill="none" xmlns="http://www.w3.org/2000/svg">
<path d="M294.52 169.96C281.32 169.96 271.72 165.72 264.04 157.96C252.68 146.6 252.44 133.8 252.44 112.04C252.44 90.28 252.68 77.48 264.04 66.12C271.72 58.36 281.32 54.12 294.52 54.12C315.72 54.12 332.2 66.36 336.2 90.12H313.64C311.4 80.84 305.56 73.88 294.52 73.88C289 73.88 284.36 75.72 280.76 79.24C275.16 84.92 274.6 94.6 274.6 112.04C274.6 129.48 275.16 139.16 280.76 144.84C284.36 148.36 289 150.2 294.52 150.2C305.56 150.2 311.4 143.24 313.64 133.96H336.2C332.2 157.72 315.72 169.96 294.52 169.96ZM393.583 169.96C380.383 169.96 370.783 165.72 363.103 157.96C351.743 146.6 351.503 133.8 351.503 112.04C351.503 90.28 351.743 77.48 363.103 66.12C370.783 58.36 380.383 54.12 393.583 54.12C406.703 54.12 416.303 58.36 424.063 66.12C435.343 77.48 435.583 90.28 435.583 112.04C435.583 133.8 435.343 146.6 424.063 157.96C416.303 165.72 406.703 169.96 393.583 169.96ZM373.663 112.04C373.663 129.4 374.223 139.16 379.823 144.84C383.423 148.36 388.063 150.2 393.583 150.2C399.103 150.2 403.663 148.36 407.263 144.84C412.943 139.16 413.423 129.48 413.423 112.04C413.423 94.6 412.943 84.92 407.263 79.24C403.663 75.72 399.103 73.88 393.583 73.88C388.063 73.88 383.423 75.72 379.823 79.24C374.223 84.92 373.663 94.6 373.663 112.04ZM458.391 169V55.08H478.071L523.351 124.84V55.08H545.591V169H525.831L480.551 99.24V169H458.391ZM593.498 169V74.84H563.738V55.08H645.498V74.84H615.658V169H593.498ZM640.283 169L681.883 55.08H699.163L740.763 169H717.483L710.683 148.84H670.363L663.563 169H640.283ZM676.603 130.2H704.443L690.523 88.76L676.603 130.2ZM791.395 169.96C778.195 169.96 768.595 165.72 760.915 157.96C749.555 146.6 749.315 133.8 749.315 112.04C749.315 90.28 749.555 77.48 760.915 66.12C768.595 58.36 778.195 54.12 791.395 54.12C812.595 54.12 829.075 66.36 833.075 90.12H810.515C808.275 80.84 802.435 73.88 791.395 73.88C785.875 73.88 781.235 75.72 777.635 79.24C772.035 84.92 771.475 94.6 771.475 112.04C771.475 129.48 772.035 139.16 777.635 144.84C781.235 148.36 785.875 150.2 791.395 150.2C802.435 150.2 808.275 143.24 810.515 133.96H833.075C829.075 157.72 812.595 169.96 791.395 169.96ZM871.466 169V74.84H841.706V55.08H923.466V74.84H893.626V169H871.466ZM941.673 169V55.08H963.833V101.56H1002.55V55.08H1024.71V169H1002.55V121.32H963.833V169H941.673ZM1091.44 169.96C1079.04 169.96 1068.16 165.56 1060.56 157.96C1053.44 150.92 1049.52 141.24 1049.52 129.88V55.08H1071.68V129.16C1071.68 142.2 1079.44 150.2 1091.44 150.2C1103.52 150.2 1111.28 142.2 1111.28 129.16V55.08H1133.44V129.88C1133.44 141.24 1129.44 150.92 1122.4 157.96C1114.8 165.56 1103.92 169.96 1091.44 169.96ZM1158.39 169V55.08H1203.99C1215.59 55.08 1224.79 58.52 1230.71 64.52C1236.31 70.12 1239.27 77.8 1239.27 87.08C1239.27 95.56 1235.59 101.96 1231.43 106.12C1229.35 108.2 1227.27 109.64 1225.19 110.52C1227.91 111.8 1230.79 113.72 1233.43 116.28C1237.67 120.52 1240.95 126.84 1240.95 136.2C1240.95 146.2 1237.67 154.04 1232.23 159.48C1225.99 165.72 1216.71 169 1206.07 169H1158.39ZM1180.55 149.24H1203.83C1213.91 149.24 1218.79 143.08 1218.79 135.16C1218.79 127.24 1213.91 121.08 1203.83 121.08H1180.55V149.24ZM1180.55 101.32H1202.47C1211.99 101.32 1217.11 96.04 1217.11 88.12C1217.11 80.12 1211.99 74.84 1202.47 74.84H1180.55V101.32Z" fill="black"/>
<path d="M169.974 133.54L153.027 133.513L153.062 181.515L93.5727 215.874L76.4123 206.013L135.905 171.654L135.856 152.239L59.5543 196.286L0.0191394 161.927L0 93.2167L76.3357 49.1233L59.5696 39.3584L0.0574183 73.7175L0.0306231 53.9694L59.5505 19.6064L135.844 63.6501L135.905 44.2466L76.4047 9.88361L93.5306 0L153.039 34.3706V82.3762L169.97 82.403L169.981 44.1662L186.996 53.9617V99.5251L135.917 99.5213L135.898 83.4748L93.5268 58.9916L51.1023 83.4863L51.11 132.407L93.523 156.901L135.902 132.414L135.917 116.372L187 116.364V161.927L169.977 171.738V133.54H169.974ZM76.3511 166.781L33.9687 142.313V93.4426L17.0494 103.127V151.994L59.5619 176.527L76.3511 166.781Z" fill="black"/>
</svg>
