<svg width="1073" height="380" viewBox="0 0 1073 380" fill="none" xmlns="http://www.w3.org/2000/svg">
<path d="M438.52 168.96C425.32 168.96 415.72 164.72 408.04 156.96C396.68 145.6 396.44 132.8 396.44 111.04C396.44 89.28 396.68 76.48 408.04 65.12C415.72 57.36 425.32 53.12 438.52 53.12C459.72 53.12 476.2 65.36 480.2 89.12H457.64C455.4 79.84 449.56 72.88 438.52 72.88C433 72.88 428.36 74.72 424.76 78.24C419.16 83.92 418.6 93.6 418.6 111.04C418.6 128.48 419.16 138.16 424.76 143.84C428.36 147.36 433 149.2 438.52 149.2C449.56 149.2 455.4 142.24 457.64 132.96H480.2C476.2 156.72 459.72 168.96 438.52 168.96ZM537.583 168.96C524.383 168.96 514.783 164.72 507.103 156.96C495.743 145.6 495.503 132.8 495.503 111.04C495.503 89.28 495.743 76.48 507.103 65.12C514.783 57.36 524.383 53.12 537.583 53.12C550.703 53.12 560.303 57.36 568.063 65.12C579.343 76.48 579.583 89.28 579.583 111.04C579.583 132.8 579.343 145.6 568.063 156.96C560.303 164.72 550.703 168.96 537.583 168.96ZM517.663 111.04C517.663 128.4 518.223 138.16 523.823 143.84C527.423 147.36 532.063 149.2 537.583 149.2C543.103 149.2 547.663 147.36 551.263 143.84C556.943 138.16 557.423 128.48 557.423 111.04C557.423 93.6 556.943 83.92 551.263 78.24C547.663 74.72 543.103 72.88 537.583 72.88C532.063 72.88 527.423 74.72 523.823 78.24C518.223 83.92 517.663 93.6 517.663 111.04ZM602.391 168V54.08H622.071L667.351 123.84V54.08H689.591V168H669.831L624.551 98.24V168H602.391ZM737.498 168V73.84H707.738V54.08H789.498V73.84H759.658V168H737.498ZM784.283 168L825.883 54.08H843.163L884.763 168H861.483L854.683 147.84H814.363L807.563 168H784.283ZM820.603 129.2H848.443L834.523 87.76L820.603 129.2ZM935.395 168.96C922.195 168.96 912.595 164.72 904.915 156.96C893.555 145.6 893.315 132.8 893.315 111.04C893.315 89.28 893.555 76.48 904.915 65.12C912.595 57.36 922.195 53.12 935.395 53.12C956.595 53.12 973.075 65.36 977.075 89.12H954.515C952.275 79.84 946.435 72.88 935.395 72.88C929.875 72.88 925.235 74.72 921.635 78.24C916.035 83.92 915.475 93.6 915.475 111.04C915.475 128.48 916.035 138.16 921.635 143.84C925.235 147.36 929.875 149.2 935.395 149.2C946.435 149.2 952.275 142.24 954.515 132.96H977.075C973.075 156.72 956.595 168.96 935.395 168.96ZM1015.47 168V73.84H985.706V54.08H1067.47V73.84H1037.63V168H1015.47ZM400.36 319V205.08H422.52V251.56H461.24V205.08H483.4V319H461.24V271.32H422.52V319H400.36ZM550.128 319.96C537.728 319.96 526.848 315.56 519.248 307.96C512.128 300.92 508.208 291.24 508.208 279.88V205.08H530.368V279.16C530.368 292.2 538.128 300.2 550.128 300.2C562.208 300.2 569.968 292.2 569.968 279.16V205.08H592.128V279.88C592.128 291.24 588.128 300.92 581.088 307.96C573.488 315.56 562.608 319.96 550.128 319.96ZM617.079 319V205.08H662.679C674.279 205.08 683.479 208.52 689.399 214.52C694.999 220.12 697.959 227.8 697.959 237.08C697.959 245.56 694.279 251.96 690.119 256.12C688.039 258.2 685.959 259.64 683.879 260.52C686.599 261.8 689.479 263.72 692.119 266.28C696.359 270.52 699.639 276.84 699.639 286.2C699.639 296.2 696.359 304.04 690.919 309.48C684.679 315.72 675.399 319 664.759 319H617.079ZM639.239 299.24H662.519C672.599 299.24 677.479 293.08 677.479 285.16C677.479 277.24 672.599 271.08 662.519 271.08H639.239V299.24ZM639.239 251.32H661.159C670.679 251.32 675.799 246.04 675.799 238.12C675.799 230.12 670.679 224.84 661.159 224.84H639.239V251.32Z" fill="black"/>
<path d="M299.044 234.944L269.23 234.897L269.291 319.349L164.628 379.799L134.437 362.451L239.106 302.001L239.019 267.843L104.777 345.338L0.0336731 284.888L0 164.002L134.302 86.4255L104.804 69.2454L0.101019 129.695L0.053877 94.9515L104.771 34.4948L238.998 111.983L239.106 77.8456L134.423 17.3888L164.554 0L269.25 60.4702V144.929L299.038 144.976L299.058 77.7041L328.993 94.938V175.1L239.126 175.094L239.093 146.862L164.547 103.787L89.9073 146.882L89.9207 232.951L164.54 276.046L239.099 232.964L239.126 204.739L329 204.726V284.888L299.051 302.149V234.944H299.044ZM134.329 293.428L59.7631 250.38V164.399L29.996 181.438V267.412L104.791 310.574L134.329 293.428Z" fill="black"/>
</svg>
